<svg xmlns="http://www.w3.org/2000/svg" xmlns:xlink="http://www.w3.org/1999/xlink" width="16" height="16" viewBox="0 0 16 16">
    <defs>
        <path id="a" d="M0 0h16v16H0z"/>
    </defs>
    <g fill="none" fill-rule="evenodd">
        <mask id="b" fill="#fff">
            <use xlink:href="#a"/>
        </mask>
        <g fill="#495057" fill-rule="nonzero" mask="url(#b)">
            <path d="M12.262.003L10.206 0c-2.31 0-3.803 1.532-3.803 3.902v1.8H4.336a.323.323 0 0 0-.323.323V8.63c0 .179.145.324.323.324h2.067v6.577c0 .179.145.323.324.323h2.697a.323.323 0 0 0 .323-.323V8.955h2.417a.323.323 0 0 0 .324-.324V6.025a.324.324 0 0 0-.323-.324H9.747V4.176c0-.733.175-1.105 1.13-1.105h1.385a.323.323 0 0 0 .323-.324V.327a.323.323 0 0 0-.323-.324z"/>
        </g>
    </g>
</svg>
